<svg width="44" height="44" viewBox="0 0 44 44" fill="none" xmlns="http://www.w3.org/2000/svg">
<path d="M33 0.75H11C5.33908 0.75 0.75 5.33908 0.75 11V41C0.75 42.2426 1.75736 43.25 3 43.25H33C38.6609 43.25 43.25 38.6609 43.25 33V11C43.25 5.33908 38.6609 0.75 33 0.75Z" fill="white"/>
<path d="M8.638 37V23.68H13.012C15.946 23.68 18.214 24.706 18.214 27.874C18.214 30.916 15.946 32.266 13.084 32.266H11.302V37H8.638ZM11.302 30.16H12.904C14.74 30.16 15.622 29.386 15.622 27.874C15.622 26.308 14.65 25.804 12.814 25.804H11.302V30.16ZM24.6399 37.252C22.2459 37.252 21.3279 35.74 21.3279 33.49V29.008H19.9239V27.046L21.4899 26.938L21.7779 24.202H23.9739V26.938H26.4759V29.008H23.9739V33.49C23.9739 34.642 24.4599 35.182 25.3419 35.182C25.6839 35.182 26.0619 35.056 26.3499 34.948L26.7819 36.874C26.2419 37.054 25.5399 37.252 24.6399 37.252Z" fill="#232323"/>
<path d="M33 0.75H11C5.33908 0.75 0.75 5.33908 0.75 11V41C0.75 42.2426 1.75736 43.25 3 43.25H33C38.6609 43.25 43.25 38.6609 43.25 33V11C43.25 5.33908 38.6609 0.75 33 0.75Z" stroke="#505050" stroke-width="0.5"/>
</svg>
